<svg xmlns="http://www.w3.org/2000/svg" xmlns:xlink="http://www.w3.org/1999/xlink" aria-hidden="true" focusable="false" width="24" height="24" style="color: rgb(0, 0, 0); transform: rotate(360deg);" preserveAspectRatio="xMidYMid meet" viewBox="0 0 256 256" _ngcontent-serverapp-c124="" data-icon="ph:file-bold" data-inline="false" data-width="24" data-height="24" class="iconify mr-2"><path fill="currentColor" d="m216.5 79.5l-56-56A12.3 12.3 0 0 0 152 20H56a20.1 20.1 0 0 0-20 20v176a20.1 20.1 0 0 0 20 20h144a20.1 20.1 0 0 0 20-20V88a12.3 12.3 0 0 0-3.5-8.5ZM160 57l23 23h-23ZM60 212V44h76v48a12 12 0 0 0 12 12h48v108Z"></path></svg>