<svg xmlns="http://www.w3.org/2000/svg" xmlns:xlink="http://www.w3.org/1999/xlink" aria-hidden="true" focusable="false" width="24" height="24" style="color: rgb(0, 0, 0); transform: rotate(360deg);" preserveAspectRatio="xMidYMid meet" viewBox="0 0 256 256" _ngcontent-serverapp-c124="" data-icon="ph:calendar-blank-bold" data-inline="false" data-width="24" data-height="24" class="iconify mr-2"><path fill="currentColor" d="M208 28h-20v-8a12 12 0 0 0-24 0v8H92v-8a12 12 0 0 0-24 0v8H48a20.1 20.1 0 0 0-20 20v160a20.1 20.1 0 0 0 20 20h160a20.1 20.1 0 0 0 20-20V48a20.1 20.1 0 0 0-20-20Zm-4 24v24H52V52ZM52 204V100h152v104Z"></path></svg>